{"title":"Avril Lavigne The Best Damn Tour - Live in Toronto - DVD Rip -","uid":4883023,"size":1465108677,"categoryP":"video","categoryS":"music_videos","magnet":"?xt=urn:btih:37a0cc616772869f9c455b028df11b75cf946fda&amp;dn=Avril+Lavigne+The+Best+Damn+Tour+-+Live+in+Toronto+-+DVD+Rip+-&amp;tr=udp%3A%2F%2Ftracker.openbittorrent.com%3A80&amp;tr=udp%3A%2F%2Fopen.demonii.com%3A1337&amp;tr=udp%3A%2F%2Ftracker.coppersurfer.tk%3A6969&amp;tr=udp%3A%2F%2Fexodus.desync.com%3A6969","seeders":2,"leechers":0,"uploader":"kingdan89","files":5,"time":1241489929,"description":"This is a High Quality DVD Rip. Please leave comments, my last torrent crashed or was messed up, unknown reason. \n\n\nPOSTER:\n\n[IMG]http://i23.photobucket.com/albums/b377/kingdan89/14wrrtl.jpg[/IMG]\n\n\n\n\nSCREEN SHOTS:\n\n\n[IMG]http://i23.photobucket.com/albums/b377/kingdan89/vlcsnap-21896.png[/IMG]\n[IMG]http://i23.photobucket.com/albums/b377/kingdan89/vlcsnap-20691.png[/IMG]\n[IMG]http://i23.photobucket.com/albums/b377/kingdan89/vlcsnap-20816.png[/IMG]\n[IMG]http://i23.photobucket.com/albums/b377/kingdan89/vlcsnap-21260.png[/IMG]\n[IMG]http://i23.photobucket.com/albums/b377/kingdan89/vlcsnap-21403.png[/IMG]\n[IMG]http://i23.photobucket.com/albums/b377/kingdan89/vlcsnap-21458.png[/IMG]\n[IMG]http://i23.photobucket.com/albums/b377/kingdan89/vlcsnap-21517.png[/IMG]\n[IMG]http://i23.photobucket.com/albums/b377/kingdan89/vlcsnap-21561.png[/IMG]\n[IMG]http://i23.photobucket.com/albums/b377/kingdan89/vlcsnap-21647.png[/IMG]\n[IMG]http://i23.photobucket.com/albums/b377/kingdan89/vlcsnap-21681.png[/IMG]\n[IMG]http://i23.photobucket.com/albums/b377/kingdan89/vlcsnap-21721.png[/IMG]\n[IMG]http://i23.photobucket.com/albums/b377/kingdan89/vlcsnap-21843.png[/IMG]\n[IMG]http://i23.photobucket.com/albums/b377/kingdan89/vlcsnap-21896.png[/IMG]\n\n\n\n &lt;a href=&quot;\nhttp://www.imdb.com/title/tt1289777/&quot; rel=&quot;nofollow&quot; target=&quot;_NEW&quot;&gt;\nhttp://www.imdb.com/title/tt1289777/&lt;/a&gt;\n\n\nFormat                           : AVI\nFormat/Info                      : Audio Video Interleave\nFile size                        : 1.36 GiB\nDuration                         : 1h 14mn\nOverall bit rate                 : 2 615 Kbps\nWriting application              : VirtualDubMod 1.5.10.2 (build 2540/release)\nWriting library                  : VirtualDubMod build 2540/release\n\nVideo\nFormat                           : MPEG-4 Visual\nFormat profile                   : Streaming Video@L1\nFormat settings, BVOP            : Yes\nFormat settings, QPel            : No\nFormat settings, GMC             : No warppoints\nFormat settings, Matrix          : Default (H.263)\nMuxing mode                      : Packed bitstream\nCodec ID                         : XVID\nCodec ID/Hint                    : XviD\nDuration                         : 1h 14mn\nBit rate                         : 2 156 Kbps\nWidth                            : 720 pixels\nHeight                           : 400 pixels\nDisplay aspect ratio             : 16/9\nFrame rate                       : 29.970 fps\nResolution                       : 24 bits\nColorimetry                      : 4:2:0\nScan type                        : Progressive\nBits/(Pixel*Frame)               : 0.250\nStream size                      : 1.12 GiB (82%)\nWriting library                  : XviD 1.1.2 (UTC 2006-11-01)\n\nAudio\nFormat                           : AC-3\nFormat/Info                      : Audio Coding 3\nCodec ID                         : 2000\nDuration                         : 1h 14mn\nBit rate mode                    : Constant\nBit rate                         : 448 Kbps\nChannel(s)                       : 6 channels\nChannel positions                : Front: L C R, Surround: L R, LFE\nSampling rate                    : 48.0 KHz\nStream size                      : 239 MiB (17%)\nAlignment                        : Split accross interleaves\nInterleave, duration             : 33 ms (1.00 video frame)\nInterleave, preload duration     : 500 ms\n\n","torrent":{"xt":"urn:btih:37a0cc616772869f9c455b028df11b75cf946fda","amp;dn":"Avril+Lavigne+The+Best+Damn+Tour+-+Live+in+Toronto+-+DVD+Rip+-","amp;tr":["udp%3A%2F%2Ftracker.openbittorrent.com%3A80","udp%3A%2F%2Fopen.demonii.com%3A1337","udp%3A%2F%2Ftracker.coppersurfer.tk%3A6969","udp%3A%2F%2Fexodus.desync.com%3A6969"],"infoHash":"37a0cc616772869f9c455b028df11b75cf946fda","infoHashBuffer":{"type":"Buffer","data":[55,160,204,97,103,114,134,159,156,69,91,2,141,241,27,117,207,148,111,218]},"announce":[],"urlList":[]}}